{
    "asset" : {
        "generator" : "Khronos glTF Blender I/O v3.2.43",
        "version" : "2.0"
    },
    "scene" : 0,
    "scenes" : [
        {
            "name" : "Scene",
            "nodes" : [
                0,
                1,
                2
            ]
        }
    ],
    "nodes" : [
        {
            "mesh" : 0,
            "name" : "Cylinder",
            "scale" : [
                1.2483612298965454,
                1.2483612298965454,
                1.2483612298965454
            ],
            "translation" : [
                -2.200119733810425,
                1.2533154487609863,
                3.516427755355835
            ]
        },
        {
            "mesh" : 1,
            "name" : "Cylinder.001",
            "scale" : [
                1.269524335861206,
                1.269524335861206,
                1.269524335861206
            ],
            "translation" : [
                -2.1984872817993164,
                0.8409247994422913,
                3.5035667419433594
            ]
        },
        {
            "mesh" : 2,
            "name" : "Cylinder.002",
            "scale" : [
                0.20000000298023224,
                3,
                0.20000000298023224
            ],
            "translation" : [
                -2.211153507232666,
                2.2799718379974365,
                3.556187629699707
            ]
        }
    ],
    "animations" : [
        {
            "channels" : [
                {
                    "sampler" : 0,
                    "target" : {
                        "node" : 0,
                        "path" : "translation"
                    }
                },
                {
                    "sampler" : 1,
                    "target" : {
                        "node" : 0,
                        "path" : "rotation"
                    }
                },
                {
                    "sampler" : 2,
                    "target" : {
                        "node" : 0,
                        "path" : "scale"
                    }
                }
            ],
            "name" : "CylinderAction",
            "samplers" : [
                {
                    "input" : 12,
                    "interpolation" : "LINEAR",
                    "output" : 13
                },
                {
                    "input" : 14,
                    "interpolation" : "STEP",
                    "output" : 15
                },
                {
                    "input" : 14,
                    "interpolation" : "STEP",
                    "output" : 16
                }
            ]
        },
        {
            "channels" : [
                {
                    "sampler" : 0,
                    "target" : {
                        "node" : 1,
                        "path" : "translation"
                    }
                },
                {
                    "sampler" : 1,
                    "target" : {
                        "node" : 1,
                        "path" : "rotation"
                    }
                },
                {
                    "sampler" : 2,
                    "target" : {
                        "node" : 1,
                        "path" : "scale"
                    }
                }
            ],
            "name" : "Cylinder.001Action",
            "samplers" : [
                {
                    "input" : 12,
                    "interpolation" : "LINEAR",
                    "output" : 17
                },
                {
                    "input" : 14,
                    "interpolation" : "STEP",
                    "output" : 18
                },
                {
                    "input" : 14,
                    "interpolation" : "STEP",
                    "output" : 19
                }
            ]
        },
        {
            "channels" : [
                {
                    "sampler" : 0,
                    "target" : {
                        "node" : 2,
                        "path" : "translation"
                    }
                },
                {
                    "sampler" : 1,
                    "target" : {
                        "node" : 2,
                        "path" : "rotation"
                    }
                },
                {
                    "sampler" : 2,
                    "target" : {
                        "node" : 2,
                        "path" : "scale"
                    }
                }
            ],
            "name" : "Cylinder.002Action",
            "samplers" : [
                {
                    "input" : 12,
                    "interpolation" : "LINEAR",
                    "output" : 20
                },
                {
                    "input" : 14,
                    "interpolation" : "STEP",
                    "output" : 21
                },
                {
                    "input" : 14,
                    "interpolation" : "STEP",
                    "output" : 22
                }
            ]
        }
    ],
    "materials" : [
        {
            "doubleSided" : true,
            "name" : "Material.006",
            "pbrMetallicRoughness" : {
                "baseColorFactor" : [
                    0.8000000715255737,
                    0.30902841687202454,
                    0.0534481517970562,
                    1
                ],
                "metallicFactor" : 0,
                "roughnessFactor" : 0.4000000059604645
            }
        },
        {
            "doubleSided" : true,
            "name" : "Material.005",
            "pbrMetallicRoughness" : {
                "baseColorFactor" : [
                    0.49057215452194214,
                    1,
                    0.15302632749080658,
                    1
                ],
                "metallicFactor" : 0,
                "roughnessFactor" : 0.4000000059604645
            }
        },
        {
            "doubleSided" : true,
            "name" : "Material.007",
            "pbrMetallicRoughness" : {
                "baseColorFactor" : [
                    0.8000000715255737,
                    0.20453022420406342,
                    0.07142158597707748,
                    1
                ],
                "metallicFactor" : 0,
                "roughnessFactor" : 0.4000000059604645
            }
        }
    ],
    "meshes" : [
        {
            "name" : "Cylinder",
            "primitives" : [
                {
                    "attributes" : {
                        "POSITION" : 0,
                        "NORMAL" : 1,
                        "TEXCOORD_0" : 2
                    },
                    "indices" : 3,
                    "material" : 0
                }
            ]
        },
        {
            "name" : "Cylinder.001",
            "primitives" : [
                {
                    "attributes" : {
                        "POSITION" : 4,
                        "NORMAL" : 5,
                        "TEXCOORD_0" : 6
                    },
                    "indices" : 7,
                    "material" : 1
                }
            ]
        },
        {
            "name" : "Cylinder.002",
            "primitives" : [
                {
                    "attributes" : {
                        "POSITION" : 8,
                        "NORMAL" : 9,
                        "TEXCOORD_0" : 10
                    },
                    "indices" : 11,
                    "material" : 2
                }
            ]
        }
    ],
    "accessors" : [
        {
            "bufferView" : 0,
            "componentType" : 5126,
            "count" : 576,
            "max" : [
                1,
                1,
                1
            ],
            "min" : [
                -1,
                -1,
                -1
            ],
            "type" : "VEC3"
        },
        {
            "bufferView" : 1,
            "componentType" : 5126,
            "count" : 576,
            "type" : "VEC3"
        },
        {
            "bufferView" : 2,
            "componentType" : 5126,
            "count" : 576,
            "type" : "VEC2"
        },
        {
            "bufferView" : 3,
            "componentType" : 5123,
            "count" : 1116,
            "type" : "SCALAR"
        },
        {
            "bufferView" : 4,
            "componentType" : 5126,
            "count" : 1365,
            "max" : [
                1,
                1.427816390991211,
                1
            ],
            "min" : [
                -1.0000001192092896,
                -1,
                -1
            ],
            "type" : "VEC3"
        },
        {
            "bufferView" : 5,
            "componentType" : 5126,
            "count" : 1365,
            "type" : "VEC3"
        },
        {
            "bufferView" : 6,
            "componentType" : 5126,
            "count" : 1365,
            "type" : "VEC2"
        },
        {
            "bufferView" : 7,
            "componentType" : 5123,
            "count" : 2808,
            "type" : "SCALAR"
        },
        {
            "bufferView" : 8,
            "componentType" : 5126,
            "count" : 192,
            "max" : [
                1,
                1,
                1
            ],
            "min" : [
                -1,
                -1,
                -1
            ],
            "type" : "VEC3"
        },
        {
            "bufferView" : 9,
            "componentType" : 5126,
            "count" : 192,
            "type" : "VEC3"
        },
        {
            "bufferView" : 10,
            "componentType" : 5126,
            "count" : 192,
            "type" : "VEC2"
        },
        {
            "bufferView" : 11,
            "componentType" : 5123,
            "count" : 372,
            "type" : "SCALAR"
        },
        {
            "bufferView" : 12,
            "componentType" : 5126,
            "count" : 120,
            "max" : [
                5
            ],
            "min" : [
                0.041666666666666664
            ],
            "type" : "SCALAR"
        },
        {
            "bufferView" : 13,
            "componentType" : 5126,
            "count" : 120,
            "type" : "VEC3"
        },
        {
            "bufferView" : 14,
            "componentType" : 5126,
            "count" : 1,
            "max" : [
                5
            ],
            "min" : [
                5
            ],
            "type" : "SCALAR"
        },
        {
            "bufferView" : 15,
            "componentType" : 5126,
            "count" : 1,
            "type" : "VEC4"
        },
        {
            "bufferView" : 16,
            "componentType" : 5126,
            "count" : 1,
            "type" : "VEC3"
        },
        {
            "bufferView" : 17,
            "componentType" : 5126,
            "count" : 120,
            "type" : "VEC3"
        },
        {
            "bufferView" : 18,
            "componentType" : 5126,
            "count" : 1,
            "type" : "VEC4"
        },
        {
            "bufferView" : 19,
            "componentType" : 5126,
            "count" : 1,
            "type" : "VEC3"
        },
        {
            "bufferView" : 20,
            "componentType" : 5126,
            "count" : 120,
            "type" : "VEC3"
        },
        {
            "bufferView" : 21,
            "componentType" : 5126,
            "count" : 1,
            "type" : "VEC4"
        },
        {
            "bufferView" : 22,
            "componentType" : 5126,
            "count" : 1,
            "type" : "VEC3"
        }
    ],
    "bufferViews" : [
        {
            "buffer" : 0,
            "byteLength" : 6912,
            "byteOffset" : 0
        },
        {
            "buffer" : 0,
            "byteLength" : 6912,
            "byteOffset" : 6912
        },
        {
            "buffer" : 0,
            "byteLength" : 4608,
            "byteOffset" : 13824
        },
        {
            "buffer" : 0,
            "byteLength" : 2232,
            "byteOffset" : 18432
        },
        {
            "buffer" : 0,
            "byteLength" : 16380,
            "byteOffset" : 20664
        },
        {
            "buffer" : 0,
            "byteLength" : 16380,
            "byteOffset" : 37044
        },
        {
            "buffer" : 0,
            "byteLength" : 10920,
            "byteOffset" : 53424
        },
        {
            "buffer" : 0,
            "byteLength" : 5616,
            "byteOffset" : 64344
        },
        {
            "buffer" : 0,
            "byteLength" : 2304,
            "byteOffset" : 69960
        },
        {
            "buffer" : 0,
            "byteLength" : 2304,
            "byteOffset" : 72264
        },
        {
            "buffer" : 0,
            "byteLength" : 1536,
            "byteOffset" : 74568
        },
        {
            "buffer" : 0,
            "byteLength" : 744,
            "byteOffset" : 76104
        },
        {
            "buffer" : 0,
            "byteLength" : 480,
            "byteOffset" : 76848
        },
        {
            "buffer" : 0,
            "byteLength" : 1440,
            "byteOffset" : 77328
        },
        {
            "buffer" : 0,
            "byteLength" : 4,
            "byteOffset" : 78768
        },
        {
            "buffer" : 0,
            "byteLength" : 16,
            "byteOffset" : 78772
        },
        {
            "buffer" : 0,
            "byteLength" : 12,
            "byteOffset" : 78788
        },
        {
            "buffer" : 0,
            "byteLength" : 1440,
            "byteOffset" : 78800
        },
        {
            "buffer" : 0,
            "byteLength" : 16,
            "byteOffset" : 80240
        },
        {
            "buffer" : 0,
            "byteLength" : 12,
            "byteOffset" : 80256
        },
        {
            "buffer" : 0,
            "byteLength" : 1440,
            "byteOffset" : 80268
        },
        {
            "buffer" : 0,
            "byteLength" : 16,
            "byteOffset" : 81708
        },
        {
            "buffer" : 0,
            "byteLength" : 12,
            "byteOffset" : 81724
        }
    ],
    "buffers" : [
        {
            "byteLength" : 81736,
            "uri" : "flower pot moving.bin"
        }
    ]
}
